<svg width="94" height="32" viewBox="0 0 94 32" xmlns="http://www.w3.org/2000/svg"><title>0C53D65E-661C-4A26-8E90-7450A7D31FA2</title><defs><linearGradient x1="0%" y1="50%" y2="50%" id="a"><stop stop-color="#1A1E5B" offset="0%"/><stop stop-color="#122C94" offset="100%"/></linearGradient></defs><g fill="none" fill-rule="evenodd"><path fill="#FF5F00" d="M17.577 6.724h9.877v17.93h-9.877z"/><path d="M18.173 15.69c0-3.644 1.693-6.875 4.296-8.966a11.147 11.147 0 0 0-6.961-2.439c-6.24 0-11.289 5.1-11.289 11.404s5.049 11.404 11.289 11.404a11.14 11.14 0 0 0 6.96-2.439c-2.602-2.059-4.295-5.322-4.295-8.965z" fill="#EB001B"/><path d="M40.75 15.69c0 6.303-5.05 11.403-11.289 11.403-2.634 0-5.048-.918-6.961-2.439 2.634-2.09 4.296-5.322 4.296-8.965S25.103 8.815 22.5 6.724a11.147 11.147 0 0 1 6.961-2.439c6.24 0 11.288 5.132 11.288 11.404z" fill="#F79E1B"/><path d="M111.29 213.246l-2.872 13.431h-3.476l2.875-13.431h3.474zm14.62 8.672l1.828-5.043 1.053 5.043h-2.882zm3.876 4.759H133l-2.805-13.431h-2.966a1.58 1.58 0 0 0-1.479.985l-5.213 12.446h3.647l.725-2.007h4.457l.42 2.007zm-9.069-4.386c.016-3.544-4.901-3.74-4.868-5.324.011-.481.47-.993 1.474-1.124.497-.065 1.87-.116 3.426.6l.61-2.848a9.338 9.338 0 0 0-3.25-.595c-3.435 0-5.852 1.826-5.872 4.44-.023 1.934 1.726 3.012 3.043 3.655 1.353.658 1.807 1.08 1.802 1.67-.01.901-1.08 1.298-2.08 1.314-1.747.027-2.76-.472-3.569-.849l-.629 2.944c.811.372 2.31.697 3.864.713 3.65 0 6.038-1.802 6.05-4.596zm-14.391-9.045l-5.63 13.431h-3.672l-2.77-10.72c-.169-.66-.315-.901-.826-1.179-.835-.454-2.215-.879-3.428-1.143l.082-.39h5.913c.753 0 1.43.502 1.602 1.37l1.463 7.772 3.616-9.141h3.65z" fill="url(#a)" transform="translate(-41 -204)"/></g></svg>