<svg width="31" height="32" viewBox="0 0 31 32" xmlns="http://www.w3.org/2000/svg"><title>qiwi</title><path d="M24.616 15.397c-.046.336-.11.378-.492.215-1.007-.428-2.331-.703-3.701-.401-.168.037-.224.106-.22.183.006.102.073.16.272.178a5.676 5.676 0 0 1 3.502 1.627c.86.855 1.667 2.496 1.91 3.87.03.165.08.228.14.24.06.013.126-.03.213-.142 2.62-3.398 3.773-10.174.326-15.153C22.243-.232 13.549-1.932 6.82 2.429.09 6.795-2.017 15.494 2.116 21.867c2.433 3.76 7.165 5.751 11.373 5.751 4.338 0 5.733-.473 8.738-.246 2.966.223 6.26 2.026 8.003 4.519.157.225.455.072.32-.186-1.818-3.483-5.151-5.362-8.155-5.9-3.52-.629-7.065-.261-8.61-5.095-.103-.323-.104-.477-.201-.506-.132-.04-.225.1-.285.39-.222 1.069-.16 2.047.123 3.298.13.575-1.307.056-1.637-.068-2.707-1.017-4.792-3.128-5.904-5.016-3.053-5.18-2.534-11.626 2.185-14.647 4.31-2.758 10.48-.881 14.188 4.312 2.69 3.768 2.362 6.924 2.362 6.924zm-4.044 6.2c-.482.202-.67.84-.431 1.43.176.432.722.926 1.317.694.501-.195.676-.896.433-1.425-.341-.746-.975-.842-1.32-.698zm4.29-.7c.173.55.064 1.074-.242 1.17-.306.096-.658-.3-.83-.85-.172-.55-.099-1.05.207-1.144.307-.097.694.273.866.823z" fill="#FFAE00" fill-rule="evenodd"/></svg>