<svg width="32" height="32" viewBox="0 0 32 32" xmlns="http://www.w3.org/2000/svg" xmlns:xlink="http://www.w3.org/1999/xlink"><title>cash</title><defs><path d="M5 24h18v4H5v-4zM0 0h18v4H0V0zm3 8h18v4H3V8zm2 8h18v4H5v-4z" id="a"/><path d="M1 16h18v4H1v-4zM0 0h18v4H0V0zm1 8h18v4H1V8z" id="c"/></defs><g transform="translate(1)" fill="none" fill-rule="evenodd"><g transform="translate(8)"><mask id="b" fill="#fff"><use xlink:href="#a"/></mask><use fill="#FCD241" xlink:href="#a"/><path fill="#FDE85E" mask="url(#b)" d="M9 14h5v16H9z"/><path fill="#FDE85E" mask="url(#b)" d="M6 4h5v16H6z"/><path fill="#FDE85E" mask="url(#b)" d="M3-8h5V8H3z"/><circle fill="#C69D12" mask="url(#b)" cx="3" cy="22" r="10"/></g><g transform="translate(12 4)"><mask id="d" fill="#fff"><use xlink:href="#c"/></mask><use fill="#E8C039" xlink:href="#c"/><path fill="#FCD241" mask="url(#d)" d="M3 4h5v19H3z"/><path fill="#FCD241" mask="url(#d)" d="M1 0h5v7H1z"/><circle fill="#C69D12" mask="url(#d)" cx="-1" cy="18" r="10"/></g><circle stroke="#E8C039" stroke-width="2" fill="#FCD241" cx="9" cy="22" r="9"/><path d="M10.273 22C11.779 22 13 20.88 13 19.5S11.779 17 10.273 17H7v5h3.273z" stroke="#2D2D2D" stroke-width="2"/><path d="M8 24v-6H6v6H5v2h1v2h2v-2h4v-2H8z" fill="#2D2D2D"/></g></svg>