<svg width="32" height="32" viewBox="0 0 32 32" xmlns="http://www.w3.org/2000/svg"><title>webmoney</title><path d="M22.686 24.741l3.206 3.665a17.37 17.37 0 0 1-2.097 1.393 15.813 15.813 0 0 1-7.856 2.077C7.162 31.876 0 24.717 0 15.94 0 7.16 7.162 0 15.94 0c2.499 0 4.872.582 6.986 1.616.333.158.66.333.988.522l-1.466 1.313-2.199-2.279-3.72 3.32-2.204-2.412-6.938 6.246 4.446 4.9-1.75 1.534 4.38 4.904-1.74 1.532 6.257 6.962 3.706-3.417zm7.61-9.891L32 16.745l-1.893 1.706-1.706-1.895 1.895-1.706zm-2.623 6.678l2.56 2.845-2.844 2.56-2.563-2.844 2.847-2.56zm-7.55-17.466l2.56 2.845-2.844 2.56-2.56-2.844 2.844-2.56zm-6.011.983l3.412 3.791-3.79 3.412-3.413-3.79 3.79-3.413zm8.348 10.137L19.9 12.34l2.84-2.56 2.564 2.842-2.844 2.56zm3.517-4.254l1.89-1.706 1.704 1.895-1.888 1.706-1.706-1.895zm-1.085 10.258l-2.565-2.84 2.844-2.562 2.565 2.84-2.844 2.562zm-1.337-15.89l1.895-1.707 1.704 1.896L25.26 7.19l-1.706-1.896zM16.449 18.72l-3.412-3.79 3.79-3.417 3.413 3.79-3.791 3.417zm2.696 6.553l-3.41-3.79 3.789-3.413 3.412 3.79-3.79 3.413z" fill="#0069A5" fill-rule="evenodd"/></svg>