<svg width="32" height="32" viewBox="0 0 32 32" xmlns="http://www.w3.org/2000/svg"><title>psb</title><g fill="none" fill-rule="evenodd"><path d="M22.227 12.449v-.034c.615-.194 1.435-.706 1.435-2.05 0-1.513-1.23-2.208-2.96-2.208h-2.938v3.622h-1.728c-2.322 0-2.802 1.626-2.802 2.515 0 1.262.73 1.821 2.074 2.49.819.411 1.796.661 1.796 1.596 0 .49-.453 1.082-1.432 1.082H13.85a2.86 2.86 0 0 0 .387-1.424c0-.579-.205-2.902-3.44-2.902h-2.64v8.959h1.799V20.19l.728.728h4.92c2.297 0 3.39-1.183 3.39-2.594 0-.501-.091-.902-.25-1.23h1.845c2.845 0 3.506-1.412 3.506-2.519 0-1.123-.729-1.957-1.868-2.127zm-11.43 7.013h-.841v-2.927h.842c1.048 0 1.526.636 1.526 1.411 0 .72-.433 1.516-1.526 1.516zm6.967-5.555v2.173c-.433-.26-.931-.466-1.455-.694-.57-.25-1.184-.569-1.184-1.288 0-.365.228-.909 1.32-.909h2.026l-.707.718zm1.799-4.349h.82c1.39 0 1.457.854 1.457 1.115 0 .387-.205 1.106-1.389 1.106h-.888V9.558zm1.026 6.125h-1.026v-2.494h1.026c1.251 0 1.593.604 1.593 1.241 0 .639-.455 1.253-1.593 1.253z" fill="#1A4188"/><path d="M24.07 0H13.113C9.577 0 6.913 2.69 6 5.984h13.245c5.094 0 6.792 1.92 6.792 7.48v12.57c3.286-.915 5.944-3.6 5.944-7.122V7.953C31.98 3.67 28.353 0 24.07 0z" fill="#1A4188"/><path d="M7.773 31.997H18.73c3.536 0 6.385-2.67 7.3-5.964H12.785c-5.094 0-6.833-1.892-6.833-7.453V6.01C2.666 6.925 0 9.589 0 13.11v10.96c0 4.284 3.49 7.928 7.773 7.928z" fill="#E15D29"/></g></svg>