<svg width="32" height="31" viewBox="0 0 32 31" xmlns="http://www.w3.org/2000/svg"><title>sberbank</title><path d="M16 30.684c-8.837 0-16-7.163-16-16 0-.335.01-.667.03-.996l9.625 5.548 20.638-11.75A15.933 15.933 0 0 1 32 14.684c0 8.837-7.163 16-16 16zm-6.345-13.38L.245 11.88c.11-.62.255-1.226.433-1.82l8.977 5.176 18.74-10.67c.382.467.737.955 1.064 1.463L9.655 17.305zm0-4l-8.4-4.842a15.83 15.83 0 0 1 .791-1.612l7.61 4.386 16.15-9.196c.502.39.98.809 1.431 1.255L9.655 13.305zm0-4L2.943 5.436c.35-.494.728-.967 1.13-1.417l5.582 3.218L22.365 0c.659.286 1.295.615 1.905.984L9.655 9.304z" fill="#289200" fill-rule="evenodd"/></svg>