<svg width="24" height="33" viewBox="0 0 24 33" xmlns="http://www.w3.org/2000/svg"><title>yamoney</title><g fill="none" fill-rule="evenodd"><path d="M3.652 10.865C6.56 8.646 16.96.044 16.96.044l.023 13.986 6.053-.052-.077 18.072-20.767-.029C.974 32.021 0 30.917 0 29.672V16.378c0-1.734.143-2.834 3.652-5.513z" fill="#F9C637"/><path d="M17.012 20.954L3.136 29.96l16.895-6L20 14.024l-2.951-.016-.037 6.945z" fill="#C8A332"/><path d="M9.566 12.763c.652-.722 1.604-.976 2.126-.569.523.407.418 1.323-.233 2.044-.652.72-1.604.975-2.126.568-.523-.407-.418-1.322.233-2.043" fill="#000106"/></g></svg>