<svg width="46" height="46" viewBox="0 0 46 46" xmlns="http://www.w3.org/2000/svg"><title>mw ico 01</title><g fill="none" fill-rule="evenodd"><path d="M35 28h7.993A2.999 2.999 0 0 0 46 25.009V6.99A3.001 3.001 0 0 0 42.993 4H13.007A2.999 2.999 0 0 0 10 6.991V19h2V6.991A.999.999 0 0 1 13.007 6h29.986C43.55 6 44 6.448 44 6.991V25.01a.999.999 0 0 1-1.007.991H35v2zM12 10h32v5H12v-5z" fill="#040404"/><path d="M2 20.991V39.01c0 .543.45.991 1.007.991h29.986A.999.999 0 0 0 34 39.009V20.99c0-.543-.45-.991-1.007-.991H3.007A.999.999 0 0 0 2 20.991zm-2 0A2.999 2.999 0 0 1 3.007 18h29.986A3.001 3.001 0 0 1 36 20.991V39.01A2.999 2.999 0 0 1 32.993 42H3.007A3.001 3.001 0 0 1 0 39.009V20.99z" fill="#040404"/><path d="M4 31h2v3H4v-3zm26 0h2v3h-2v-3zm-3 0h2v3h-2v-3zm-3 0h2v3h-2v-3zm-4 0h2v3h-2v-3zm-3 0h2v3h-2v-3zm-3 0h2v3h-2v-3zm-4 0h2v3h-2v-3zm-3 0h2v3H7v-3z" fill="#000"/></g></svg>