<svg width="46" height="46" viewBox="0 0 46 46" xmlns="http://www.w3.org/2000/svg"><title>mw ico 02</title><g fill="#040404" fill-rule="evenodd"><path d="M12 39.993c0 1.11.897 2.007 2.003 2.007h18.994C34.1 42 35 41.1 35 39.993V6.007C35 4.897 34.103 4 32.997 4H14.003C12.9 4 12 4.9 12 6.007v33.986zM14.003 2h18.994A4.004 4.004 0 0 1 37 6.007v33.986A4.009 4.009 0 0 1 32.997 44H14.003A4.004 4.004 0 0 1 10 39.993V6.007A4.009 4.009 0 0 1 14.003 2z"/><path d="M22 21v1h4v2h-4v2h-2v-2h-2v-2h2v-8h4.491A3.507 3.507 0 0 1 28 17.5c0 1.933-1.561 3.5-3.509 3.5H22zm0-4.994v2.988c0 .01-.005.006-.002.006h2.493c.84 0 1.509-.669 1.509-1.5 0-.825-.676-1.5-1.509-1.5h-2.493c-.001 0 .002-.003.002.006zM11 33h24v2H11v-2zm12.5 7a1.5 1.5 0 1 0 0-3 1.5 1.5 0 0 0 0 3z"/></g></svg>