<svg width="45" height="44" viewBox="0 0 45 44" xmlns="http://www.w3.org/2000/svg"><title>mw ico 03</title><g fill="#040404" fill-rule="evenodd"><path d="M45 38H27.131c-.423-1.21-2.358-2.898-4.188-2.898-1.83 0-3.497 1.397-3.817 2.898H0V18h45v20zM2 19.993V36h41V20l-41-.007z"/><path d="M39 31.999A.997.997 0 0 1 40 31c.552 0 1 .443 1 .999v1.002A.997.997 0 0 1 40 34c-.552 0-1-.443-1-.999v-1.002zm-3 0A.997.997 0 0 1 37 31c.552 0 1 .443 1 .999v1.002A.997.997 0 0 1 37 34c-.552 0-1-.443-1-.999v-1.002zm-32 0A.997.997 0 0 1 5 31c.552 0 1 .443 1 .999v1.002A.997.997 0 0 1 5 34c-.552 0-1-.443-1-.999v-1.002zM32 19h2v17h-2V19zM8 19h2v17H8V19zm-4-7h37v2H4v-2zm-2 3h41v2H2v-2zM23 42a3 3 0 1 0 0-6 3 3 0 0 0 0 6zm0 2a5 5 0 1 1 0-10 5 5 0 0 1 0 10zM14 8a3 3 0 1 0 0-6 3 3 0 0 0 0 6zm0 2a5 5 0 1 1 0-10 5 5 0 0 1 0 10z"/></g></svg>