<svg xmlns="http://www.w3.org/2000/svg" width="34" height="32" viewBox="0 0 34 32">
  <path fill="#000000" fill-rule="evenodd" d="M16.515,31.78 C7.394,31.78 -2.84217094e-14,24.361 -2.84217094e-14,15.209 C-2.84217094e-14,14.862 0.011,14.518 0.032,14.177 L9.967,19.923 L31.27,7.753 C32.397,9.994 33.032,12.527 33.032,15.208 C33.032,24.36 25.638,31.779 16.517,31.779 L16.515,31.78 Z M16.5,29.8000031 C24.5081289,29.8000031 31,23.3081319 31,15.3000031 C31,13.672061 30.8318667,12.053245 30.3371094,10.5924219 C9.96953125,22.1723437 9.933125,22.2232031 9.933125,22.2232031 C9.933125,22.2232031 9.933125,22.2232031 2.20496237,17.7432185 C3.36640478,24.5879589 9.32453332,29.8000031 16.5,29.8000031 Z M9.966,9.637 L3.037,5.629 C3.399,5.118 3.789,4.628 4.204,4.161 L9.965,7.494 L23.083,0 C23.764,0.296 24.42,0.637 25.05,1.019 L9.965,9.637 L9.966,9.637 Z M9.966,13.78 L1.295,8.764 C1.537,8.19 1.81,7.632 2.112,7.094 L9.966,11.637 L26.637,2.113 C27.155,2.517 27.648,2.95 28.114,3.412 L9.966,13.78 Z M0.253,12.305 C0.366,11.663 0.516,11.035 0.7,10.421 L9.966,15.781 L29.31,4.73 C29.704,5.213 30.07,5.719 30.408,6.245 L9.966,17.923 L0.253,12.305 Z"/>
</svg>
