<svg xmlns="http://www.w3.org/2000/svg" width="52" height="25" viewBox="0 0 52 25"><defs><linearGradient id="a" x1="-233.561%" x2="372.942%" y1="45.221%" y2="44.723%"><stop stop-color="#191E5F" offset="0%"/><stop stop-color="#142787" stop-opacity=".818" offset="100%"/></linearGradient><linearGradient id="b" x1="-182.481%" x2="225.539%" y1="35.797%" y2="33.883%"><stop stop-color="#191E5F" offset="0%"/><stop stop-color="#142787" stop-opacity=".818" offset="100%"/></linearGradient><linearGradient id="c" x1="-230.002%" x2="110.954%" y1="27.397%" y2="24.375%"><stop stop-color="#191E5F" offset="0%"/><stop stop-color="#142787" stop-opacity=".818" offset="100%"/></linearGradient><linearGradient id="d" x1="-13.859%" x2="265.571%" y1="27.382%" y2="25.028%"><stop stop-color="#191E5F" offset="0%"/><stop stop-color="#142787" stop-opacity=".818" offset="100%"/></linearGradient><linearGradient id="e" x1="31.991%" x2="301.273%" y1="47.883%" y2="43.303%"><stop stop-color="#191E5F" offset="0%"/><stop stop-color="#142787" stop-opacity=".818" offset="100%"/></linearGradient><linearGradient id="f" x1="-149.148%" x2="3859.928%" y1="335.864%" y2="267.357%"><stop stop-color="#191E5F" offset="0%"/><stop stop-color="#142787" stop-opacity=".818" offset="100%"/></linearGradient></defs><g fill="none"><path fill="url(#a)" d="M17.187.142h3.456l-2.162 12.57h-3.454z" transform="translate(9 6)"/><path fill="url(#b)" d="M31.032.548C30.347.293 29.275.02 27.935.02c-3.415 0-5.82 1.705-5.84 4.148-.019 1.806 1.717 2.814 3.028 3.415 1.345.616 1.797 1.009 1.791 1.559-.008.843-1.074 1.228-2.067 1.228-1.383 0-2.118-.191-3.253-.66l-.445-.2-.485 2.814c.807.351 2.3.655 3.849.671 3.633 0 5.991-1.685 6.017-4.295.013-1.43-.908-2.518-2.901-3.415-1.208-.581-1.948-.97-1.94-1.558 0-.522.626-1.081 1.979-1.081a6.418 6.418 0 0 1 2.586.482l.31.145.468-2.724" transform="translate(9 6)"/><path fill="url(#c)" d="M39.893.251h-2.67c-.827 0-1.446.224-1.809 1.042l-5.132 11.52h3.629s.593-1.549.727-1.889l4.426.005c.103.44.42 1.884.42 1.884h3.207L39.894.251h-.001zm-4.261 8.102c.286-.724 1.377-3.514 1.377-3.514l.458-1.2.234 1.084.8 3.63h-2.869z" transform="translate(9 6)"/><path fill="url(#d)" d="M12.145.248L8.762 8.82l-.36-1.742C7.772 5.07 5.81 2.894 3.616 1.805L6.71 12.798l3.656-.004L15.806.248h-3.66" transform="translate(9 6)"/><path fill="url(#e)" d="M5.623.24H.051L.007.502c4.335 1.04 7.204 3.555 8.394 6.576L7.189 1.302C6.98.506 6.373.269 5.623.241" transform="translate(9 6)"/><path fill="url(#f)" d="M3.752 2.283c-.072-.263-.146-.421-.419-.568l1.018.455" transform="translate(9 6)"/></g></svg>